<?xml version="1.0" encoding="UTF-8" standalone="no"?>
<!-- Created with Inkscape (http://www.inkscape.org/) -->

<svg
   xmlns:dc="http://purl.org/dc/elements/1.1/"
   xmlns:cc="http://creativecommons.org/ns#"
   xmlns:rdf="http://www.w3.org/1999/02/22-rdf-syntax-ns#"
   xmlns:svg="http://www.w3.org/2000/svg"
   xmlns="http://www.w3.org/2000/svg"
   xmlns:sodipodi="http://sodipodi.sourceforge.net/DTD/sodipodi-0.dtd"
   xmlns:inkscape="http://www.inkscape.org/namespaces/inkscape"
   id="svg3390"
   version="1.1"
   inkscape:version="0.91 r"
   xml:space="preserve"
   width="367.53625"
   height="367.53751"
   viewBox="0 0 367.53626 367.5375"
   sodipodi:docname="jon.svg"><metadata
     id="metadata3396"><rdf:RDF><cc:Work
         rdf:about=""><dc:format>image/svg+xml</dc:format><dc:type
           rdf:resource="http://purl.org/dc/dcmitype/StillImage" /><dc:title></dc:title></cc:Work></rdf:RDF></metadata><defs
     id="defs3394"><clipPath
       clipPathUnits="userSpaceOnUse"
       id="clipPath3406"><path
         d="M 0,980 1400,980 1400,0 0,0 0,980 Z"
         id="path3408"
         inkscape:connector-curvature="0" /></clipPath></defs><sodipodi:namedview
     pagecolor="#ffffff"
     bordercolor="#666666"
     borderopacity="1"
     objecttolerance="10"
     gridtolerance="10"
     guidetolerance="10"
     inkscape:pageopacity="0"
     inkscape:pageshadow="2"
     inkscape:window-width="1366"
     inkscape:window-height="700"
     id="namedview3392"
     showgrid="false"
     fit-margin-top="0"
     fit-margin-left="0"
     fit-margin-right="0"
     fit-margin-bottom="0"
     inkscape:zoom="1"
     inkscape:cx="440.32245"
     inkscape:cy="231.06525"
     inkscape:window-x="0"
     inkscape:window-y="0"
     inkscape:window-maximized="1"
     inkscape:current-layer="g3404" /><g
     id="g3398"
     inkscape:groupmode="layer"
     inkscape:label="BOWLING_ALLEY"
     transform="matrix(1.25,0,0,-1.25,-765.99805,603.05144)"><g
       id="g3402"
       transform="translate(54.236637,22.442748)"><g
         id="g3404"
         clip-path="url(#clipPath3406)"><g
           id="g3426"
           transform="translate(852.5908,312.9844)"><path
             d="m 0,0 c 0,-81.194 -65.82,-147.016 -147.015,-147.016 -81.194,0 -147.014,65.822 -147.014,147.016 0,81.193 65.82,147.014 147.014,147.014 C -65.82,147.014 0,81.193 0,0"
             style="fill:#e0574b;fill-opacity:1;fill-rule:nonzero;stroke:none"
             id="path3428"
             inkscape:connector-curvature="0" /></g><g
           id="g3914"
           transform="translate(783.876,335.1699)"><path
             d="m 0,0 0.007,-0.141 -6.283,1.612 c 1.709,-16.123 8.534,-31.791 3.299,-48.004 -10.247,-31.738 -24.121,-58.083 -24.121,-58.083 l 6.293,-1.63 c 0,0 13.874,26.345 24.119,58.083 C 8.566,-31.896 1.68,-16.18 0,0"
             style="fill:#d8dcaf;fill-opacity:1;fill-rule:nonzero;stroke:none"
             id="path3916"
             inkscape:connector-curvature="0" /></g><g
           id="g3918"
           transform="translate(786.6738,391.4219)"><path
             d="m 0,0 c 1.838,-5.298 0.427,-13.35 -1.736,-22.923 -0.994,-4.403 -4.851,-8.5 -6.234,-13.61 l 6.292,-1.629 c 1.383,5.11 5.239,9.206 6.234,13.61 2.161,9.573 3.574,17.624 1.737,22.923 C 4.655,3.087 0.651,5.46 -3.589,4.997 -2.027,3.867 -0.757,2.185 0,0"
             style="fill:#d8dcaf;fill-opacity:1;fill-rule:nonzero;stroke:none"
             id="path3920"
             inkscape:connector-curvature="0" /></g><g
           id="g3922"
           transform="translate(777.5488,348.8389)"><path
             d="m 0,0 c -0.233,-1.99 -0.326,-3.972 -0.314,-5.943 l 6.281,-1.628 0.012,-0.141 c -0.021,2.031 0.076,4.07 0.317,6.121 L 6.289,-1.628 0,0 Z"
             style="fill:#d8dcaf;fill-opacity:1;fill-rule:nonzero;stroke:none"
             id="path3924"
             inkscape:connector-curvature="0" /></g><g
           id="g3926"
           transform="translate(777.5996,336.6416)"><path
             d="m 0,0 -5.175,1.328 -13.817,3.545 0.067,0.106 c -9.449,-13.173 -23.017,-23.725 -26.304,-40.416 -6.449,-32.722 -7.106,-62.489 -7.106,-62.489 l 12.611,-3.265 6.292,-1.63 12.612,-3.266 c 0,0 13.873,26.344 24.119,58.083 C 8.533,-31.793 1.707,-16.123 0,0"
             style="fill:#eef3ca;fill-opacity:1;fill-rule:nonzero;stroke:none"
             id="path3928"
             inkscape:connector-curvature="0" /></g><g
           id="g3930"
           transform="translate(777.2139,393.8721)"><path
             d="m 0,0 c -4.418,-3.56 -6.926,-11.633 -9.704,-21.212 -1.231,-4.246 0.621,-9.7 -0.702,-14.69 l 7.154,-1.853 0.29,-0.075 4.452,-1.153 c 1.383,5.11 5.239,9.207 6.234,13.61 C 9.887,-15.8 11.298,-7.748 9.46,-2.45 8.703,-0.266 7.433,1.417 5.871,2.547 3.892,2.331 1.864,1.503 0,0"
             style="fill:#eef3ca;fill-opacity:1;fill-rule:nonzero;stroke:none"
             id="path3932"
             inkscape:connector-curvature="0" /></g><g
           id="g3934"
           transform="translate(772.9541,344.0039)"><path
             d="M 0,0 0.102,-0.026 4.28,-1.108 C 4.268,0.863 4.359,2.845 4.595,4.835 L 0.514,5.893 -8.175,8.143 -8.144,8.23 C -8.963,6.319 -9.905,4.485 -10.945,2.714 L -10.878,2.816 0,0 Z"
             style="fill:#eef3ca;fill-opacity:1;fill-rule:nonzero;stroke:none"
             id="path3936"
             inkscape:connector-curvature="0" /></g><g
           id="g3938"
           transform="translate(764.8105,352.2344)"><path
             d="M 0,0 C 0.787,1.836 1.465,3.74 1.994,5.734 L 0,0 Z"
             style="fill:#eef3ca;fill-opacity:1;fill-rule:nonzero;stroke:none"
             id="path3940"
             inkscape:connector-curvature="0" /></g><g
           id="g3942"
           transform="translate(784.9961,353.2598)"><path
             d="M 0,0 C -0.546,-2.016 -0.914,-4.019 -1.15,-6.011 L 0,0 Z"
             style="fill:#eef3ca;fill-opacity:1;fill-rule:nonzero;stroke:none"
             id="path3944"
             inkscape:connector-curvature="0" /></g><g
           id="g3946"
           transform="translate(777.5488,348.8389)"><path
             d="m 0,0 6.289,-1.628 0.007,0.037 C 6.868,1.396 6.902,1.668 7.445,4.42 L 1.154,6.049 C 0.607,4.021 0.237,2.006 0,0"
             style="fill:#73b49e;fill-opacity:1;fill-rule:nonzero;stroke:none"
             id="path3948"
             inkscape:connector-curvature="0" /></g><g
           id="g3950"
           transform="translate(778.7041,354.8887)"><path
             d="m 0,0 -4.452,1.153 -0.29,0.076 -7.156,1.852 c -0.785,-2.254 -1.248,-3.586 -1.996,-5.733 l -0.031,-0.09 8.689,-2.25 4.081,-1.058 C -0.918,-4.045 -0.548,-2.028 0,0"
             style="fill:#9ed6c8;fill-opacity:1;fill-rule:nonzero;stroke:none"
             id="path3952"
             inkscape:connector-curvature="0" /></g><g
           id="g3954"
           transform="translate(758.6748,341.6191)"><path
             d="M 0,0 C 1.186,1.652 2.307,3.347 3.334,5.099 L 0,0 Z"
             style="fill:#eef3ca;fill-opacity:1;fill-rule:nonzero;stroke:none"
             id="path3956"
             inkscape:connector-curvature="0" /></g><g
           id="g3958"
           transform="translate(783.5254,341.127)"><path
             d="M 0,0 C 0.019,-1.994 0.145,-3.979 0.351,-5.957 L 0,0 Z"
             style="fill:#eef3ca;fill-opacity:1;fill-rule:nonzero;stroke:none"
             id="path3960"
             inkscape:connector-curvature="0" /></g><g
           id="g3962"
           transform="translate(777.2344,342.8955)"><path
             d="M 0,0 C 0.013,-2.095 0.145,-4.179 0.365,-6.255 L 6.648,-7.866 6.64,-7.725 C 6.51,-5.209 6.448,-4.437 6.293,-1.769 L 6.283,-1.628 0,0 Z"
             style="fill:#73b49e;fill-opacity:1;fill-rule:nonzero;stroke:none"
             id="path3964"
             inkscape:connector-curvature="0" /></g><g
           id="g3966"
           transform="translate(777.2344,342.8955)"><path
             d="M 0,0 -4.177,1.081 -4.28,1.108 -15.159,3.925 -15.226,3.822 c -1.258,-1.926 -2.148,-3.446 -3.334,-5.097 l -0.067,-0.106 13.816,-3.546 5.176,-1.328 C 0.145,-4.179 0.013,-2.095 0,0"
             style="fill:#9ed6c8;fill-opacity:1;fill-rule:nonzero;stroke:none"
             id="path3968"
             inkscape:connector-curvature="0" /></g><g
           id="g3970"
           transform="translate(694.894,348.8984)"><path
             d="M 0,0 C -0.024,1.997 -0.173,4.014 -0.496,6.051 L 0,0 Z"
             style="fill:#eef3ca;fill-opacity:1;fill-rule:nonzero;stroke:none"
             id="path3972"
             inkscape:connector-curvature="0" /></g><g
           id="g3974"
           transform="translate(693.5771,336.709)"><path
             d="M 0,0 C 0.415,1.99 0.754,3.992 0.985,6.009 L 0,0 Z"
             style="fill:#eef3ca;fill-opacity:1;fill-rule:nonzero;stroke:none"
             id="path3976"
             inkscape:connector-curvature="0" /></g><g
           id="g3978"
           transform="translate(719.2305,341.0049)"><path
             d="m 0,0 0.065,-0.125 -6.397,-1.069 c 8.084,-14.054 20.666,-25.619 22.439,-42.565 3.469,-33.171 1.44,-62.876 1.44,-62.876 l 6.414,1.056 c 0,0 2.026,29.705 -1.442,62.875 C 20.742,-25.704 8.081,-14.115 0,0"
             style="fill:#d8dcaf;fill-opacity:1;fill-rule:nonzero;stroke:none"
             id="path3980"
             inkscape:connector-curvature="0" /></g><g
           id="g3982"
           transform="translate(699.0342,393.5791)"><path
             d="m 0,0 c 3.825,-4.101 5.79,-12.036 7.687,-21.665 0.871,-4.428 -1,-9.735 -0.197,-14.969 l 6.414,1.056 c -0.803,5.232 1.066,10.54 0.194,14.969 C 12.204,-10.981 10.236,-3.046 6.412,1.056 3.009,4.706 -1.614,5.257 -5.304,3.119 -3.417,2.716 -1.578,1.692 0,0"
             style="fill:#d8dcaf;fill-opacity:1;fill-rule:nonzero;stroke:none"
             id="path3984"
             inkscape:connector-curvature="0" /></g><g
           id="g3986"
           transform="translate(707.917,350.9463)"><path
             d="M 0,0 C 0.592,-1.915 1.308,-3.765 2.115,-5.563 L 8.521,-4.51 8.585,-4.636 C 7.748,-2.785 7.009,-0.882 6.401,1.093 L 6.41,1.056 0,0 Z"
             style="fill:#d8dcaf;fill-opacity:1;fill-rule:nonzero;stroke:none"
             id="path3988"
             inkscape:connector-curvature="0" /></g><g
           id="g3990"
           transform="translate(712.8975,339.8115)"><path
             d="m 0,0 -5.269,-0.88 -14.07,-2.347 0.02,0.124 c -3.314,-15.87 -11.452,-31.008 -7.707,-47.603 7.341,-32.532 18.782,-60.022 18.782,-60.022 l 12.855,2.117 6.413,1.053 12.855,2.117 c 0,0 2.028,29.705 -1.439,62.876 C 20.667,-25.622 8.085,-14.055 0,0"
             style="fill:#eef3ca;fill-opacity:1;fill-rule:nonzero;stroke:none"
             id="path3992"
             inkscape:connector-curvature="0" /></g><g
           id="g3994"
           transform="translate(689.3901,391.9932)"><path
             d="m 0,0 c -2.599,-5.04 -1.627,-13.441 -0.292,-23.322 0.591,-4.384 4.494,-8.622 5.3,-13.721 l 7.292,1.199 0.298,0.05 4.536,0.746 c -0.803,5.234 1.068,10.541 0.197,14.969 C 15.434,-10.45 13.469,-2.515 9.644,1.586 8.066,3.278 6.227,4.302 4.34,4.705 2.618,3.707 1.098,2.129 0,0"
             style="fill:#eef3ca;fill-opacity:1;fill-rule:nonzero;stroke:none"
             id="path3996"
             inkscape:connector-curvature="0" /></g><g
           id="g3998"
           transform="translate(705.6699,344.6641)"><path
             d="M 0,0 0.105,0.018 4.362,0.719 C 3.555,2.518 2.84,4.365 2.246,6.282 l -4.161,-0.684 -8.854,-1.457 -0.008,0.093 c 0.024,-2.079 -0.096,-4.138 -0.331,-6.18 l 0.021,0.123 L 0,0 Z"
             style="fill:#eef3ca;fill-opacity:1;fill-rule:nonzero;stroke:none"
             id="path4000"
             inkscape:connector-curvature="0" /></g><g
           id="g4002"
           transform="translate(712.9385,358.001)"><path
             d="M 0,0 C 0.316,-2.064 0.789,-4.044 1.381,-5.962 L 0,0 Z"
             style="fill:#eef3ca;fill-opacity:1;fill-rule:nonzero;stroke:none"
             id="path4004"
             inkscape:connector-curvature="0" /></g><g
           id="g4006"
           transform="translate(707.917,350.9463)"><path
             d="M 0,0 6.41,1.056 6.401,1.093 C 5.812,3.418 5.605,4.703 5.021,7.055 L -1.392,5.999 C -1.073,3.922 -0.597,1.929 0,0"
             style="fill:#73b49e;fill-opacity:1;fill-rule:nonzero;stroke:none"
             id="path4008"
             inkscape:connector-curvature="0" /></g><g
           id="g4010"
           transform="translate(706.5254,356.9453)"><path
             d="m 0,0 -4.539,-0.746 -0.295,-0.049 -7.293,-1.2 c 0.184,-2.257 0.309,-3.777 0.495,-6.052 l 0.007,-0.093 8.854,1.457 4.162,0.685 C 0.795,-4.07 0.318,-2.077 0,0"
             style="fill:#9ed6c8;fill-opacity:1;fill-rule:nonzero;stroke:none"
             id="path4012"
             inkscape:connector-curvature="0" /></g><g
           id="g4014"
           transform="translate(716.502,346.3105)"><path
             d="M 0,0 C 0.824,-1.815 1.741,-3.58 2.729,-5.307 L 0,0 Z"
             style="fill:#eef3ca;fill-opacity:1;fill-rule:nonzero;stroke:none"
             id="path4016"
             inkscape:connector-curvature="0" /></g><g
           id="g4018"
           transform="translate(710.0332,345.3828)"><path
             d="m 0,0 c 0.859,-1.909 1.823,-3.763 2.864,-5.572 l 6.398,1.069 -0.064,0.124 C 8.008,-2.12 7.848,-1.752 6.469,0.928 L 6.405,1.054 0,0 Z"
             style="fill:#73b49e;fill-opacity:1;fill-rule:nonzero;stroke:none"
             id="path4020"
             inkscape:connector-curvature="0" /></g><g
           id="g4022"
           transform="translate(710.0332,345.3828)"><path
             d="m 0,0 -4.258,-0.701 -0.104,-0.018 -11.089,-1.823 -0.019,-0.123 c -0.384,-2.259 -0.551,-3.36 -0.985,-6.009 l -0.02,-0.124 14.071,2.347 5.268,0.879 C 1.823,-3.763 0.859,-1.909 0,0"
             style="fill:#9ed6c8;fill-opacity:1;fill-rule:nonzero;stroke:none"
             id="path4024"
             inkscape:connector-curvature="0" /></g><g
           id="g4026"
           transform="translate(633.9492,346.665)"><path
             d="M 0,0 C -0.277,1.977 -0.682,3.958 -1.261,5.938 L 0,0 Z"
             style="fill:#eef3ca;fill-opacity:1;fill-rule:nonzero;stroke:none"
             id="path4028"
             inkscape:connector-curvature="0" /></g><g
           id="g4030"
           transform="translate(634.1934,334.4062)"><path
             d="M 0,0 C 0.159,2.027 0.241,4.055 0.213,6.086 L 0,0 Z"
             style="fill:#eef3ca;fill-opacity:1;fill-rule:nonzero;stroke:none"
             id="path4032"
             inkscape:connector-curvature="0" /></g><g
           id="g4034"
           transform="translate(659.0923,341.9297)"><path
             d="m 0,0 0.081,-0.116 -6.209,-1.873 c 9.804,-12.913 23.755,-22.785 27.668,-39.367 7.658,-32.46 9.422,-62.183 9.422,-62.183 l 6.228,1.863 c 0,0 -1.766,29.721 -9.424,62.181 C 23.842,-22.858 9.81,-12.974 0,0"
             style="fill:#d8dcaf;fill-opacity:1;fill-rule:nonzero;stroke:none"
             id="path4036"
             inkscape:connector-curvature="0" /></g><g
           id="g4038"
           transform="translate(632.375,391.5088)"><path
             d="m 0,0 c 4.316,-3.581 7.274,-11.202 10.379,-20.511 1.427,-4.282 0.247,-9.784 1.708,-14.873 l 6.228,1.863 c -1.462,5.088 -0.283,10.59 -1.711,14.872 C 13.501,-9.34 10.541,-1.719 6.227,1.862 2.386,5.051 -2.269,5.009 -5.657,2.419 -3.734,2.26 -1.78,1.479 0,0"
             style="fill:#d8dcaf;fill-opacity:1;fill-rule:nonzero;stroke:none"
             id="path4040"
             inkscape:connector-curvature="0" /></g><g
           id="g4042"
           transform="translate(646.6069,350.3516)"><path
             d="m 0,0 c 0.83,-1.824 1.774,-3.568 2.805,-5.25 l 6.22,1.86 0.079,-0.117 C 8.039,-1.778 7.063,0.017 6.21,1.897 L 6.224,1.861 0,0 Z"
             style="fill:#d8dcaf;fill-opacity:1;fill-rule:nonzero;stroke:none"
             id="path4044"
             inkscape:connector-curvature="0" /></g><g
           id="g4046"
           transform="translate(652.9619,339.9404)"><path
             d="m 0,0 -5.114,-1.542 -13.657,-4.118 0.003,0.126 c -1.269,-16.162 -7.416,-32.212 -1.591,-48.196 11.418,-31.335 26.261,-57.147 26.261,-57.147 l 12.482,3.733 6.226,1.862 12.481,3.732 c 0,0 -1.764,29.723 -9.421,62.183 C 23.758,-22.787 9.807,-12.913 0,0"
             style="fill:#eef3ca;fill-opacity:1;fill-rule:nonzero;stroke:none"
             id="path4048"
             inkscape:connector-curvature="0" /></g><g
           id="g4050"
           transform="translate(623.0117,388.709)"><path
             d="m 0,0 c -1.937,-5.329 0.094,-13.538 2.675,-23.169 1.144,-4.273 5.554,-7.981 7.001,-12.936 l 7.081,2.118 0.289,0.086 4.405,1.317 c -1.462,5.089 -0.282,10.591 -1.709,14.873 C 16.637,-8.402 13.679,-0.781 9.363,2.8 7.583,4.279 5.629,5.06 3.706,5.219 2.125,4.011 0.817,2.252 0,0"
             style="fill:#eef3ca;fill-opacity:1;fill-rule:nonzero;stroke:none"
             id="path4052"
             inkscape:connector-curvature="0" /></g><g
           id="g4054"
           transform="translate(645.1763,343.8359)"><path
             d="M 0,0 0.103,0.03 4.235,1.266 C 3.205,2.947 2.261,4.689 1.429,6.515 l -4.04,-1.207 -8.597,-2.572 -0.02,0.093 c 0.289,-2.059 0.432,-4.118 0.458,-6.173 L -10.765,-3.22 0,0 Z"
             style="fill:#eef3ca;fill-opacity:1;fill-rule:nonzero;stroke:none"
             id="path4056"
             inkscape:connector-curvature="0" /></g><g
           id="g4058"
           transform="translate(650.6904,357.9873)"><path
             d="M 0,0 C 0.576,-2.008 1.297,-3.91 2.128,-5.738 L 0,0 Z"
             style="fill:#eef3ca;fill-opacity:1;fill-rule:nonzero;stroke:none"
             id="path4060"
             inkscape:connector-curvature="0" /></g><g
           id="g4062"
           transform="translate(646.6069,350.3516)"><path
             d="M 0,0 6.224,1.861 6.21,1.897 C 5.33,4.129 4.962,5.377 4.083,7.636 L -2.143,5.773 C -1.564,3.753 -0.837,1.838 0,0"
             style="fill:#73b49e;fill-opacity:1;fill-rule:nonzero;stroke:none"
             id="path4064"
             inkscape:connector-curvature="0" /></g><g
           id="g4066"
           transform="translate(644.4639,356.125)"><path
             d="m 0,0 -4.407,-1.317 -0.287,-0.086 -7.082,-2.118 c 0.47,-2.214 0.788,-3.708 1.261,-5.939 l 0.019,-0.092 8.597,2.572 4.04,1.207 C 1.306,-3.936 0.579,-2.021 0,0"
             style="fill:#9ed6c8;fill-opacity:1;fill-rule:nonzero;stroke:none"
             id="path4068"
             inkscape:connector-curvature="0" /></g><g
           id="g4070"
           transform="translate(655.7109,346.8447)"><path
             d="M 0,0 C 1.049,-1.696 2.183,-3.329 3.382,-4.916 L 0,0 Z"
             style="fill:#eef3ca;fill-opacity:1;fill-rule:nonzero;stroke:none"
             id="path4072"
             inkscape:connector-curvature="0" /></g><g
           id="g4074"
           transform="translate(649.4131,345.1025)"><path
             d="M 0,0 C 1.095,-1.785 2.287,-3.5 3.549,-5.163 L 9.759,-3.29 9.68,-3.174 C 8.212,-1.085 8.006,-0.74 6.298,1.742 L 6.219,1.859 0,0 Z"
             style="fill:#73b49e;fill-opacity:1;fill-rule:nonzero;stroke:none"
             id="path4076"
             inkscape:connector-curvature="0" /></g><g
           id="g4078"
           transform="translate(649.4131,345.1025)"><path
             d="m 0,0 -4.134,-1.236 -0.102,-0.031 -10.766,-3.219 -0.003,-0.124 c -0.095,-2.289 -0.12,-3.404 -0.214,-6.086 l -0.004,-0.126 13.658,4.118 5.114,1.541 C 2.287,-3.5 1.095,-1.785 0,0"
             style="fill:#9ed6c8;fill-opacity:1;fill-rule:nonzero;stroke:none"
             id="path4080"
             inkscape:connector-curvature="0" /></g><g
           id="g4214"
           transform="translate(732.0029,312.2451)"><path
             d="M 0,0 C -8.585,3.354 -17.486,4.48 -26.079,3.674 -20.858,3.195 -15.62,2.004 -10.493,0 18.893,-11.48 33.404,-44.609 21.923,-73.995 17.364,-85.657 9.387,-94.964 -0.404,-101.247 l 0.033,-0.06 c -7.566,-4.911 -16.332,-8.067 -25.692,-8.943 0.326,-0.027 0.646,-0.071 0.973,-0.096 12.911,-0.935 25.129,2.494 35.21,9.039 l -0.033,0.06 c 9.792,6.283 17.768,15.59 22.328,27.252 C 43.895,-44.609 29.383,-11.48 0,0"
             style="fill:#404041;fill-opacity:1;fill-rule:nonzero;stroke:none"
             id="path4216"
             inkscape:connector-curvature="0" /></g><g
           id="g4218"
           transform="translate(731.5986,210.998)"><path
             d="m 0,0 c 9.791,6.283 17.769,15.588 22.327,27.252 11.482,29.384 -3.03,62.515 -32.416,73.995 -5.125,2.005 -10.365,3.196 -15.586,3.674 -0.141,-0.013 -0.283,-0.016 -0.426,-0.029 -12.175,-1.234 -23.679,-6.394 -32.741,-14.637 -0.12,-0.109 -0.24,-0.22 -0.361,-0.333 -0.728,-0.673 -1.441,-1.364 -2.137,-2.078 -0.335,-0.344 -0.664,-0.694 -0.992,-1.044 -0.451,-0.491 -0.9,-0.985 -1.338,-1.49 -0.575,-0.664 -1.129,-1.341 -1.674,-2.03 -0.167,-0.213 -0.335,-0.423 -0.499,-0.636 -6.583,-8.559 -10.84,-19.057 -11.681,-30.632 -2.258,-31.139 20.891,-58.24 51.865,-61.015 9.36,0.876 18.127,4.032 25.692,8.943 L 0,0 Z"
             style="fill:#6d6e70;fill-opacity:1;fill-rule:nonzero;stroke:none"
             id="path4220"
             inkscape:connector-curvature="0" /></g><g
           id="g4222"
           transform="translate(715.3652,261.4043)"><path
             d="m 0,0 c -1.517,-1.062 -3.395,-1.638 -5.389,-1.512 -4.66,0.297 -8.197,4.318 -7.9,8.98 0.217,3.418 2.437,6.232 5.445,7.374"
             style="fill:#d8dcaf;fill-opacity:1;fill-rule:nonzero;stroke:none"
             id="path4224"
             inkscape:connector-curvature="0" /></g><g
           id="g4226"
           transform="translate(707.5215,276.2461)"><path
             d="m 0,0 c 1.092,0.411 2.287,0.604 3.529,0.524 4.659,-0.296 8.198,-4.316 7.9,-8.975 -0.17,-2.667 -1.556,-4.967 -3.587,-6.391"
             style="fill:#eef3ca;fill-opacity:1;fill-rule:nonzero;stroke:none"
             id="path4228"
             inkscape:connector-curvature="0" /></g><g
           id="g4230"
           transform="translate(731.6523,283.3389)"><path
             d="m 0,0 c -1.258,-0.915 -2.824,-1.421 -4.501,-1.343 -3.912,0.19 -6.935,3.511 -6.748,7.426 0.137,2.871 1.962,5.263 4.472,6.259"
             style="fill:#d8dcaf;fill-opacity:1;fill-rule:nonzero;stroke:none"
             id="path4232"
             inkscape:connector-curvature="0" /></g><g
           id="g4234"
           transform="translate(724.875,295.6807)"><path
             d="M 0,0 C 0.911,0.362 1.91,0.54 2.955,0.488 6.865,0.304 9.889,-3.021 9.701,-6.936 9.595,-9.175 8.461,-11.121 6.777,-12.344"
             style="fill:#eef3ca;fill-opacity:1;fill-rule:nonzero;stroke:none"
             id="path4236"
             inkscape:connector-curvature="0" /></g><g
           id="g4238"
           transform="translate(742.7031,262.8477)"><path
             d="m 0,0 c -1.26,-0.912 -2.827,-1.42 -4.501,-1.341 -3.913,0.188 -6.937,3.511 -6.748,7.424 0.139,2.872 1.962,5.264 4.472,6.261"
             style="fill:#d8dcaf;fill-opacity:1;fill-rule:nonzero;stroke:none"
             id="path4240"
             inkscape:connector-curvature="0" /></g><g
           id="g4242"
           transform="translate(735.9258,275.1914)"><path
             d="M 0,0 C 0.91,0.362 1.912,0.54 2.954,0.489 6.865,0.304 9.89,-3.021 9.702,-6.937 9.594,-9.174 8.461,-11.122 6.776,-12.344"
             style="fill:#eef3ca;fill-opacity:1;fill-rule:nonzero;stroke:none"
             id="path4244"
             inkscape:connector-curvature="0" /></g></g></g></g></svg>